<svg xmlns="http://www.w3.org/2000/svg" viewBox="0 0 512 512">
  <rect width="512" height="512" rx="96" fill="#0e1116"/>
  <g fill="none" stroke="#3b82f6" stroke-width="18" stroke-linecap="round" stroke-linejoin="round">
    <path d="M112 300 l30-78 a34 34 0 0 1 32-22 h164 a34 34 0 0 1 32 22 l30 78"/>
    <path d="M96 300 h320 a16 16 0 0 1 16 16 v44 a12 12 0 0 1-12 12 h-328 a12 12 0 0 1-12-12 v-44 a16 16 0 0 1 16-16 z"/>
  </g>
  <circle cx="168" cy="372" r="26" fill="#0e1116" stroke="#e6edf3" stroke-width="16"/>
  <circle cx="344" cy="372" r="26" fill="#0e1116" stroke="#e6edf3" stroke-width="16"/>
  <circle cx="256" cy="180" r="34" fill="none" stroke="#2ea043" stroke-width="16"/>
  <circle cx="256" cy="180" r="10" fill="#2ea043"/>
</svg>
